<svg xmlns="http://www.w3.org/2000/svg" viewBox="0 0 344.83 187.93"><defs><style>.cls-1{fill:#fff;}</style></defs><g id="Layer_2" data-name="Layer 2"><g id="Layer_1-2" data-name="Layer 1"><path class="cls-1" d="M0,104.74v53.19a30,30,0,0,0,30,30H314.83a30,30,0,0,0,30-30V104.74a1.63,1.63,0,0,0-1.62-1.62H1.62A1.63,1.63,0,0,0,0,104.74Z"/><path class="cls-1" d="M217,0H30A30,30,0,0,0,0,30V83.19a1.63,1.63,0,0,0,1.62,1.62H217Z"/><path class="cls-1" d="M314.83,0H235.29V84.81h79a30.56,30.56,0,0,0,30.56-30.56V30A30,30,0,0,0,314.83,0Z"/></g></g></svg>